<?xml version="1.0" encoding="UTF-8"?>
<svg version="1.1" xmlns="http://www.w3.org/2000/svg" width="456" height="96">
<path d="M0 0 C1.31266846 0.01244751 1.31266846 0.01244751 2.65185547 0.02514648 C17.20997686 0.40329698 28.41567156 6.681823 38.37109375 17.16015625 C47.11648063 28.1248026 50.27172299 42.21141588 48.8203125 55.984375 C46.21763775 70.18662487 38.64059484 80.88037531 27.1875 89.4375 C14.64856204 97.00310729 0.85551514 98.35935386 -13.43359375 95.78515625 C-20.45248916 93.65849483 -26.15233406 90.04070651 -31.8125 85.4375 C-32.43769531 84.96054688 -33.06289063 84.48359375 -33.70703125 83.9921875 C-40.60656535 78.04270211 -46.77752493 66.54528066 -47.8125 57.4375 C-48.51434652 46.94334638 -48.77983496 36.97108076 -43.8125 27.4375 C-43.15894531 26.14972656 -43.15894531 26.14972656 -42.4921875 24.8359375 C-35.65691657 12.4726879 -25.56166422 5.33305558 -12.23266602 1.04174805 C-8.15577668 0.02386233 -4.18476314 -0.05150852 0 0 Z " fill="#AE96F8" transform="translate(47.8125,-0.4375)"/>
<path d="M0 0 C1.31266846 0.01244751 1.31266846 0.01244751 2.65185547 0.02514648 C17.20997686 0.40329698 28.41567156 6.681823 38.37109375 17.16015625 C47.11648063 28.1248026 50.27172299 42.21141588 48.8203125 55.984375 C46.19099497 70.33200893 38.58126724 80.65524318 27.1875 89.4375 C25.2075 90.4275 25.2075 90.4275 23.1875 91.4375 C23.1875 85.8275 23.1875 80.2175 23.1875 74.4375 C25.1675 75.0975 27.1475 75.7575 29.1875 76.4375 C28.8575 75.7775 28.5275 75.1175 28.1875 74.4375 C27.59975933 69.50047835 28.89593136 66.48346882 31.21484375 62.26953125 C35.07552899 54.99779881 33.82146777 44.58182717 32 36.77734375 C29.05798858 28.30491662 22.55880962 21.27422289 14.6875 17.1171875 C6.36396361 13.65711278 -1.86470826 12.73537506 -10.46875 15.6953125 C-21.65729708 20.54754922 -28.15550162 27.805975 -32.90234375 38.95703125 C-35.3128496 45.5264356 -36.3142513 52.00309716 -33.4375 58.58203125 C-32.34317195 60.63642951 -31.20834479 62.66995408 -30.02734375 64.67578125 C-28.19689359 68.83696537 -29.42950747 71.28852241 -30.8125 75.4375 C-27.3475 74.9425 -27.3475 74.9425 -23.8125 74.4375 C-23.8125 79.7175 -23.8125 84.9975 -23.8125 90.4375 C-35.90261232 84.39244384 -41.89720517 74.67021149 -46.8125 62.4375 C-49.98035688 51.54359216 -49.00869541 37.41032225 -43.8125 27.4375 C-43.15894531 26.14972656 -43.15894531 26.14972656 -42.4921875 24.8359375 C-35.65691657 12.4726879 -25.56166422 5.33305558 -12.23266602 1.04174805 C-8.15577668 0.02386233 -4.18476314 -0.05150852 0 0 Z " fill="#010B26" transform="translate(47.8125,-0.4375)"/>
<path d="M0 0 C4.29 0 8.58 0 13 0 C13 6.27 13 12.54 13 19 C18.28 19 23.56 19 29 19 C29 12.73 29 6.46 29 0 C33.29 0 37.58 0 42 0 C42 16.83 42 33.66 42 51 C37.71 51 33.42 51 29 51 C29 44.07 29 37.14 29 30 C23.72 30 18.44 30 13 30 C13 36.93 13 43.86 13 51 C8.71 51 4.42 51 0 51 C0 34.17 0 17.34 0 0 Z " fill="#FFFFFF" transform="translate(128,20)"/>
<path d="M0 0 C3.25 2.1875 3.25 2.1875 5.25 5.1875 C3.27 7.8275 1.29 10.4675 -0.75 13.1875 C-1.389375 12.878125 -2.02875 12.56875 -2.6875 12.25 C-6.63732977 10.87965089 -10.56918015 10.29427929 -14.75 10.1875 C-15.74 10.6825 -15.74 10.6825 -16.75 11.1875 C-16.51052698 13.14339434 -16.51052698 13.14339434 -15.75 15.1875 C-13.15746071 16.51040532 -10.7062967 17.59822722 -8 18.625 C-2.53632893 20.71318364 1.40186208 22.55357819 5.25 27.1875 C6.69836189 31.53258568 6.77342771 35.64641095 6.25 40.1875 C4.4375 43.625 4.4375 43.625 2.25 46.1875 C1.775625 46.765 1.30125 47.3425 0.8125 47.9375 C-5.2145063 52.75910504 -13.49930857 51.8219355 -20.75 51.1875 C-25.28609341 49.88090788 -28.84537159 47.79058561 -32.75 45.1875 C-32.24477778 40.80890745 -29.57172778 38.37098776 -26.75 35.1875 C-21.75 37.1875 -21.75 37.1875 -19.5 38.3125 C-15.5803209 39.55967062 -11.82950054 39.34748041 -7.75 39.1875 C-7.64262224 36.80377058 -7.64262224 36.80377058 -8.75 34.1875 C-11.35215085 32.61908031 -13.73577849 31.38468044 -16.5 30.1875 C-21.82230782 27.83266596 -25.91406432 25.75548447 -29.75 21.1875 C-31.10682449 17.11702653 -31.27472254 13.44358283 -30.75 9.1875 C-24.922051 -2.25254804 -11.49755761 -5.54762448 0 0 Z " fill="#FFFFFF" transform="translate(233.75,20.8125)"/>
<path d="M0 0 C4.30342613 1.8874676 7.08508261 4.44974211 9.3203125 8.65234375 C10.85051987 13.93771519 10.20692429 19.56823743 10 25 C2.74 25 -4.52 25 -12 25 C-11.67 26.32 -11.34 27.64 -11 29 C-5.99691568 30.66769477 -0.00308432 30.66769477 5 29 C6.98 31.97 6.98 31.97 9 35 C8.02118402 37.66949813 7.41587577 38.78450074 4.8515625 40.11328125 C1.4765167 41.16278179 -1.40492068 41.30099323 -4.9375 41.3125 C-6.12214844 41.32925781 -7.30679687 41.34601563 -8.52734375 41.36328125 C-13.69753082 40.82241804 -17.74256906 38.85431972 -21.25 35 C-25.32389132 29.91835661 -26.30541018 23.9031421 -25.8046875 17.50390625 C-24.45524726 10.22919659 -21.04507218 5.29518286 -15 1 C-10.57830905 -1.21084548 -4.81305356 -0.41036997 0 0 Z M-10.875 11.25 C-12.1753568 13.11439755 -12.1753568 13.11439755 -13 16 C-9.04 16 -5.08 16 -1 16 C-1.33 14.35 -1.66 12.7 -2 11 C-6.62792547 9.78272204 -6.62792547 9.78272204 -10.875 11.25 Z " fill="#FFFFFF" transform="translate(270,31)"/>
<path d="M0 0 C4.05319236 2.00451997 6.35640709 4.86408898 8.1484375 8.8828125 C9.4662701 14.00239249 9.01153854 19.14104381 8.79296875 24.38671875 C1.53296875 24.71671875 -5.72703125 25.04671875 -13.20703125 25.38671875 C-9.68138698 29.77762516 -9.68138698 29.77762516 -5.26953125 29.69921875 C-2.17816695 29.54320597 0.784221 29.13890569 3.79296875 28.38671875 C5.11296875 31.02671875 6.43296875 33.66671875 7.79296875 36.38671875 C0.8746746 40.7276092 -5.11718227 41.35750063 -13.20703125 40.38671875 C-18.30865545 39.07860998 -21.23336188 36.81184934 -24.14453125 32.44921875 C-27.76552078 25.86339215 -28.13486184 19.15315712 -26.20703125 11.88671875 C-22.20036454 0.5828861 -10.93540057 -3.03868653 0 0 Z M-12.64453125 11.19921875 C-14.40077731 13.20992547 -14.40077731 13.20992547 -14.20703125 15.38671875 C-10.24703125 15.38671875 -6.28703125 15.38671875 -2.20703125 15.38671875 C-2.53703125 13.73671875 -2.86703125 12.08671875 -3.20703125 10.38671875 C-8.22279814 9.06651628 -8.22279814 9.06651628 -12.64453125 11.19921875 Z " fill="#FFFFFF" transform="translate(312.20703125,31.61328125)"/>
<path d="M0 0 C2.18976537 0.30169777 2.18976537 0.30169777 4.13671875 -0.87890625 C8.38219496 -1.09477792 11.48224464 -1.06929872 15.57421875 0.12109375 C19.964203 1.52647834 19.964203 1.52647834 28.13671875 1.12109375 C28.13671875 7.06109375 28.13671875 13.00109375 28.13671875 19.12109375 C15.43334112 24.91233943 1.61497023 26.69776607 -11.98828125 22.24609375 C-14.96783379 21.10660482 -16.60278913 20.38158587 -18.86328125 18.12109375 C-19.17003357 15.22141618 -19.37501496 12.40326197 -19.48828125 9.49609375 C-19.52695312 8.69429687 -19.565625 7.8925 -19.60546875 7.06640625 C-19.69982056 5.08501819 -19.7826434 3.1030873 -19.86328125 1.12109375 C-13.16683851 -1.75530695 -7.07637703 -0.87777418 0 0 Z " fill="#372774" transform="translate(42.86328125,71.87890625)"/>
<path d="M0 0 C1.29922995 2.5984599 0.81286289 3.75961451 0.1875 6.5625 C0.01605469 7.36816406 -0.15539062 8.17382812 -0.33203125 9.00390625 C-1 11 -1 11 -3 12 C-4.7015625 12.1546875 -4.7015625 12.1546875 -6.4375 12.3125 C-9.96693659 12.6465308 -9.96693659 12.6465308 -11.69067383 14.70410156 C-13.25841762 17.45313431 -13.42415428 19.26955403 -13.51171875 22.421875 C-13.54716797 23.44667969 -13.58261719 24.47148438 -13.61914062 25.52734375 C-13.65297852 27.12255859 -13.65297852 27.12255859 -13.6875 28.75 C-13.72166016 29.82894531 -13.75582031 30.90789063 -13.79101562 32.01953125 C-13.87339858 34.67932392 -13.93837837 37.33964537 -14 40 C-18.29 40 -22.58 40 -27 40 C-27 27.13 -27 14.26 -27 1 C-23.37 1 -19.74 1 -16 1 C-15.67 2.32 -15.34 3.64 -15 5 C-14.195625 4.175 -13.39125 3.35 -12.5625 2.5 C-8.654055 -0.82733327 -4.90510679 -0.49051068 0 0 Z " fill="#FFFFFF" transform="translate(355,31)"/>
<path d="M0 0 C1.22589844 0.01353516 1.22589844 0.01353516 2.4765625 0.02734375 C3.41628906 0.04474609 3.41628906 0.04474609 4.375 0.0625 C4.26041307 1.50086751 4.13290884 2.93820966 4 4.375 C3.93039062 5.17550781 3.86078125 5.97601563 3.7890625 6.80078125 C3.375 9.0625 3.375 9.0625 1.375 12.0625 C-0.95747761 12.40176947 -3.29085471 12.73490066 -5.625 13.0625 C-7.41985953 14.18233028 -7.41985953 14.18233028 -8.625 16.0625 C-9.12979657 18.6693023 -9.12979657 18.6693023 -9.13671875 21.60546875 C-9.17216797 22.67861328 -9.20761719 23.75175781 -9.24414062 24.85742188 C-9.26669922 25.97697266 -9.28925781 27.09652344 -9.3125 28.25 C-9.34666016 29.38115234 -9.38082031 30.51230469 -9.41601562 31.67773438 C-9.4985557 34.47230557 -9.56345235 37.26738768 -9.625 40.0625 C-13.915 40.0625 -18.205 40.0625 -22.625 40.0625 C-22.625 27.1925 -22.625 14.3225 -22.625 1.0625 C-18.995 1.0625 -15.365 1.0625 -11.625 1.0625 C-11.295 2.3825 -10.965 3.7025 -10.625 5.0625 C-10.00625 4.423125 -9.3875 3.78375 -8.75 3.125 C-5.70483388 0.16939759 -4.12760769 -0.05896582 0 0 Z " fill="#FFFFFF" transform="translate(382.625,30.9375)"/>
<path d="M0 0 C7 1 7 1 9.375 1.5625 C13.19998234 2.19999706 17.1222568 2 21 2 C21 7.94 21 13.88 21 20 C13.02021484 23.63784324 9.05093001 25 0 25 C0 16.75 0 8.5 0 0 Z " fill="#7440CB" transform="translate(50,71)"/>
<path d="M0 0 C4.04818111 -0.48192632 5.7705803 -0.13851755 9.3125 2 C12.18715838 4.67745227 13.02528424 7.11854698 13.23828125 11.00390625 C12.82761813 14.44405138 11.2430938 16.45378542 9 19 C5.79214982 21.35242347 2.90350748 21.4684209 -1 21 C-4.80812781 18.94946964 -7.71023757 17.25621602 -9 13 C-9.125 10.25 -9.125 10.25 -9 8 C-6.98177083 8.26041667 -4.96354167 8.52083333 -2.9453125 8.78125 C-0.99501656 9.0372485 -0.99501656 9.0372485 1 9 C1.26932521 4.34947128 1.26932521 4.34947128 0 0 Z " fill="#092C67" transform="translate(45,40)"/>
<path d="M0 0 C6.6 0 13.2 0 20 0 C20 2.97 20 5.94 20 9 C13.4 9 6.8 9 0 9 C0 6.03 0 3.06 0 0 Z " fill="#FFFFFF" transform="translate(178,47)"/>
<path d="M0 0 C0 8.25 0 16.5 0 25 C-2.31 25 -4.62 25 -7 25 C-7.20996011 8.59978242 -7.20996011 8.59978242 -6 2 C-3 0 -3 0 0 0 Z " fill="#070E2F" transform="translate(50,71)"/>
<path d="M0 0 C2.31 0.33 4.62 0.66 7 1 C6.67 8.59 6.34 16.18 6 24 C4.35 24 2.7 24 1 24 C0 23 0 23 -0.11352539 20.77514648 C-0.10828857 19.81680908 -0.10305176 18.85847168 -0.09765625 17.87109375 C-0.09443359 16.83662109 -0.09121094 15.80214844 -0.08789062 14.73632812 C-0.07951172 13.64771484 -0.07113281 12.55910156 -0.0625 11.4375 C-0.05798828 10.34501953 -0.05347656 9.25253906 -0.04882812 8.12695312 C-0.03699826 5.41791505 -0.02051543 2.70898401 0 0 Z " fill="#723FC7" transform="translate(37,72)"/>
<path d="M0 0 C2.97 0 5.94 0 9 0 C9 5.94 9 11.88 9 18 C6.69 18.99 4.38 19.98 2 21 C1.90912109 19.35451172 1.90912109 19.35451172 1.81640625 17.67578125 C1.73195502 16.22134346 1.64730934 14.76691695 1.5625 13.3125 C1.52318359 12.59126953 1.48386719 11.87003906 1.44335938 11.12695312 C1.21814322 7.33292718 0.87160695 3.71348508 0 0 Z " fill="#8154DF" transform="translate(62,73)"/>
<path d="M0 0 C1.2065625 0.0309375 1.2065625 0.0309375 2.4375 0.0625 C3.58732602 4.15253859 3.54844256 8.09427051 3.5 12.3125 C3.49548828 13.05757812 3.49097656 13.80265625 3.48632812 14.5703125 C3.47459246 16.4010764 3.4566585 18.23179873 3.4375 20.0625 C1.1275 20.7225 -1.1825 21.3825 -3.5625 22.0625 C-3.59137814 18.58335059 -3.60925687 15.10423169 -3.625 11.625 C-3.63337891 10.63177734 -3.64175781 9.63855469 -3.65039062 8.61523438 C-3.65361328 7.67099609 -3.65683594 6.72675781 -3.66015625 5.75390625 C-3.66539307 4.87935791 -3.67062988 4.00480957 -3.67602539 3.10375977 C-3.50444536 0.01864008 -3.10895855 0.07582826 0 0 Z " fill="#3E267C" transform="translate(60.5625,73.9375)"/>
<path d="M0 0 C-0.99 6.93 -1.98 13.86 -3 21 C-7 20 -7 20 -8 19 C-8.23701239 16.14122091 -8.42219182 13.30116703 -8.5625 10.4375 C-8.60568359 9.63119141 -8.64886719 8.82488281 -8.69335938 7.99414062 C-8.79975262 5.99631195 -8.90040888 3.9981793 -9 2 C-5.62902617 0.50178941 -3.79557881 0 0 0 Z " fill="#723CC7" transform="translate(32,71)"/>
<path d="M0 0 C5.625 -0.25 5.625 -0.25 9 2 C7.34136495 6.32504836 4.128959 9.09418825 0.875 12.25 C0.31167969 12.80429687 -0.25164063 13.35859375 -0.83203125 13.9296875 C-2.21686028 15.29104485 -3.60783204 16.64614859 -5 18 C-8.42436208 15.0163065 -8.57781494 12.4751616 -9 8 C-6.98177083 8.26041667 -4.96354167 8.52083333 -2.9453125 8.78125 C-0.99501656 9.0372485 -0.99501656 9.0372485 1 9 C1.26932521 4.34947128 1.26932521 4.34947128 0 0 Z " fill="#05347D" transform="translate(45,40)"/>
<path d="M0 0 C0.21432579 6.64409958 -0.48766299 12.53205867 -2 19 C-2.99 19 -3.98 19 -5 19 C-5.18451025 6.33029613 -5.18451025 6.33029613 -4 1 C-1 0 -1 0 0 0 Z " fill="#614EAE" transform="translate(36,75)"/>
<path d="M0 0 C0.99 0.99 1.98 1.98 3 3 C2.49210937 3.42410156 1.98421875 3.84820312 1.4609375 4.28515625 C-3.16626354 8.22780882 -7.15591946 12.29100134 -11 17 C-11.99 16.67 -12.98 16.34 -14 16 C-12.34136495 11.67495164 -9.128959 8.90581175 -5.875 5.75 C-5.31167969 5.19570313 -4.74835937 4.64140625 -4.16796875 4.0703125 C-2.78313972 2.70895515 -1.39216796 1.35385141 0 0 Z " fill="#022C6F" transform="translate(54,43)"/>
<path d="M0 0 C0.46707789 4.01686987 0.32150834 5.56501812 -2.125 8.875 C-5.43498188 11.32150834 -6.98313013 11.46707789 -11 11 C-1.73033708 0 -1.73033708 0 0 0 Z " fill="#032156" transform="translate(57,49)"/>
<path d="M0 0 C0.33 0 0.66 0 1 0 C1 5.61 1 11.22 1 17 C-1.31 17.99 -3.62 18.98 -6 20 C-6 17.69 -6 15.38 -6 13 C-3.03 13.495 -3.03 13.495 0 14 C0 9.38 0 4.76 0 0 Z " fill="#7263C7" transform="translate(70,74)"/>
<path d="M0 0 C0.66 0.33 1.32 0.66 2 1 C2 1.66 2 2.32 2 3 C0.61355063 3.94684347 -0.77874917 4.88625246 -2.19921875 5.78125 C-5.353287 7.91589055 -8.15540241 10.47520924 -11 13 C-10.40369649 9.73829163 -9.35630233 7.86775002 -7.1875 5.375 C-6.68605469 4.78460937 -6.18460938 4.19421875 -5.66796875 3.5859375 C-3.86563963 1.87224752 -2.32491522 0.87714854 0 0 Z " fill="#C095F6" transform="translate(34,16)"/>
<path d="M0 0 C2.475 0.99 2.475 0.99 5 2 C5 2.99 5 3.98 5 5 C3.02 5.99 3.02 5.99 1 7 C0.67 4.69 0.34 2.38 0 0 Z " fill="#154496" transform="translate(36,48)"/>
<path d="M0 0 C1.98 0.495 1.98 0.495 4 1 C3.67 2.32 3.34 3.64 3 5 C1.68 5 0.36 5 -1 5 C-0.67 3.35 -0.34 1.7 0 0 Z " fill="#553198" transform="translate(32,71)"/>
<path d="M0 0 C0.99 0.33 1.98 0.66 3 1 C-0.465 3.97 -0.465 3.97 -4 7 C-3.04065919 3.16263678 -2.76390737 2.40339772 0 0 Z " fill="#CCA5FC" transform="translate(27,22)"/>
<path d="M0 0 C-1.1875 1.5 -1.1875 1.5 -3 3 C-5.6875 3.1875 -5.6875 3.1875 -8 3 C-8.33 2.34 -8.66 1.68 -9 1 C-5.8035914 -0.06546953 -3.34252724 -0.07427838 0 0 Z " fill="#AA83E0" transform="translate(47,13)"/>
<path d="M0 0 C1.98 0 3.96 0 6 0 C6 0.99 6 1.98 6 3 C4.35 3 2.7 3 1 3 C0.67 2.01 0.34 1.02 0 0 Z " fill="#8B70E9" transform="translate(64,85)"/>
<path d="M0 0 C1.98 0 3.96 0 6 0 C4.25 3.875 4.25 3.875 2 5 C1.34 3.35 0.68 1.7 0 0 Z " fill="#023A8C" transform="translate(45,40)"/>
</svg>
